<?xml version="1.0" encoding="UTF-8" standalone="no"?>
<!-- Created with Inkscape (http://www.inkscape.org/) -->

<svg
   width="256"
   height="246"
   viewBox="0 0 67.733332 65.0875"
   version="1.1"
   id="svg1"
   xml:space="preserve"
   sodipodi:docname="icon.svg"
   inkscape:version="1.4.2 (ebf0e940d0, 2025-05-08)"
   inkscape:export-filename="../../icon.png"
   inkscape:export-xdpi="96"
   inkscape:export-ydpi="96"
   xmlns:inkscape="http://www.inkscape.org/namespaces/inkscape"
   xmlns:sodipodi="http://sodipodi.sourceforge.net/DTD/sodipodi-0.dtd"
   xmlns:xlink="http://www.w3.org/1999/xlink"
   xmlns="http://www.w3.org/2000/svg"
   xmlns:svg="http://www.w3.org/2000/svg"><sodipodi:namedview
     id="namedview1"
     pagecolor="#ffffff"
     bordercolor="#000000"
     borderopacity="0.25"
     inkscape:showpageshadow="2"
     inkscape:pageopacity="0.0"
     inkscape:pagecheckerboard="0"
     inkscape:deskcolor="#d1d1d1"
     inkscape:document-units="mm"
     inkscape:zoom="2.2621668"
     inkscape:cx="87.968756"
     inkscape:cy="145.21476"
     inkscape:window-width="1920"
     inkscape:window-height="996"
     inkscape:window-x="0"
     inkscape:window-y="0"
     inkscape:window-maximized="1"
     inkscape:current-layer="layer1" /><defs
     id="defs1"><linearGradient
       id="linearGradient4"
       inkscape:collect="always"><stop
         style="stop-color:#fa5c5c;stop-opacity:1;"
         offset="0.2"
         id="stop4" /><stop
         style="stop-color:#a05c90;stop-opacity:1;"
         offset="0.5"
         id="stop6" /><stop
         style="stop-color:#478cbf;stop-opacity:1;"
         offset="0.75"
         id="stop5" /></linearGradient><linearGradient
       inkscape:collect="always"
       xlink:href="#linearGradient4"
       id="linearGradient5"
       x1="0"
       y1="0"
       x2="67.73333"
       y2="65.087502"
       gradientUnits="userSpaceOnUse"
       spreadMethod="pad"
       gradientTransform="matrix(0.96850402,0,0,0.96850402,1.066665,1.0249985)" /></defs><g
     inkscape:label="Layer 1"
     inkscape:groupmode="layer"
     id="layer1"><rect
       style="fill:url(#linearGradient5);fill-opacity:1;fill-rule:evenodd;stroke:#2d2d2d;stroke-width:2.05;stroke-dasharray:none;stroke-opacity:1"
       id="rect1"
       width="65.599998"
       height="63.037502"
       x="1.0666649"
       y="1.0249985"
       ry="10.994253" /><g
       transform="matrix(0.26458333,0,0,0.26458333,38.739458,-234.00973)"
       id="g7"><path
         d="m 0,0 c 0,0 -0.325,1.994 -0.515,1.976 l -36.182,-3.491 c -2.879,-0.278 -5.115,-2.574 -5.317,-5.459 l -0.994,-14.247 -27.992,-1.997 -1.904,12.912 c -0.424,2.872 -2.932,5.037 -5.835,5.037 h -38.188 c -2.902,0 -5.41,-2.165 -5.834,-5.037 l -1.905,-12.912 -27.992,1.997 -0.994,14.247 c -0.202,2.886 -2.438,5.182 -5.317,5.46 l -36.2,3.49 c -0.187,0.018 -0.324,-1.978 -0.511,-1.978 l -0.049,-7.83 30.658,-4.944 1.004,-14.374 c 0.203,-2.91 2.551,-5.263 5.463,-5.472 l 38.551,-2.75 c 0.146,-0.01 0.29,-0.016 0.434,-0.016 2.897,0 5.401,2.166 5.825,5.038 l 1.959,13.286 h 28.005 l 1.959,-13.286 c 0.423,-2.871 2.93,-5.037 5.831,-5.037 0.142,0 0.284,0.005 0.423,0.015 l 38.556,2.75 c 2.911,0.209 5.26,2.562 5.463,5.472 l 1.003,14.374 30.645,4.966 z"
         fill="#ffffff"
         stroke-width="0.32031"
         transform="matrix(0.41022,0,0,-0.41022,90.133,1088.2)"
         id="path1-3" /><path
         d="m 40.764,1026.7 c -0.22378,-0.01 -0.44741,0.016 -0.66602,0.064 -4.3317,0.963 -8.6879,2.3175 -12.83,4.4024 -0.95895,0.4827 -1.5531,1.4756 -1.5254,2.5488 0.07479,2.8867 0.32664,5.695 0.64453,8.5293 -1.0776,0.645 -2.1541,1.232 -3.3418,2.1856 -0.84553,0.6493 -1.7885,1.4733 -2.7109,2.2363 -2.1487,-1.3494 -4.3197,-2.6924 -6.6191,-3.8496 -1.1025,-0.5551 -2.4393,-0.3147 -3.2793,0.5898 -3.1265,3.3648 -6.0985,7.0462 -8.5527,11.223 -0.52064,0.8868 -0.50786,1.9888 0.033203,2.8633 1.6231,2.6255 3.3518,5.0794 5.1719,7.4589 v 29.805 c 0,8.223 5.472,14.496 13.299,18.238 7.8268,3.7426 18.185,5.4523 29.576,5.4922 h 0.07425 c 11.391,-0.04 21.749,-1.7494 29.574,-5.4922 7.825,-3.7428 13.295,-10.016 13.295,-18.238 l 0.0039,-29.031 c 1.8487,-2.7118 3.3825,-5.3341 5.1738,-8.2305 0.54026,-0.874 0.55303,-1.975 0.0332,-2.8613 -2.4537,-4.1771 -5.4284,-7.8601 -8.5547,-11.225 -0.83968,-0.9036 -2.1753,-1.144 -3.2773,-0.5899 -2.2985,1.157 -4.4703,2.5023 -6.6191,3.8516 -0.92228,-0.7635 -1.8625,-1.5876 -2.7109,-2.2383 -0.0034,0 -0.0064,0 -0.0098,-0.01 -1.1855,-0.951 -2.2584,-1.537 -3.332,-2.1797 0.3171,-2.834 0.56942,-5.643 0.64453,-8.5293 0.02779,-1.0733 -0.56641,-2.0662 -1.5254,-2.5489 -4.1423,-2.0846 -8.4981,-3.4392 -12.832,-4.4023 -1.1688,-0.2595 -2.3721,0.2603 -2.9844,1.2891 -1.4005,2.3538 -2.6017,4.8552 -3.7637,7.3261 -1.0352,-0.094 -2.0858,-0.238 -3.0879,-0.25 -0.01107,-10e-5 -0.02213,-10e-5 -0.0332,0 h -0.06054 c -0.01107,-10e-5 -0.02213,-10e-5 -0.0332,0 -1.0041,0.012 -2.0561,0.1556 -3.0918,0.25 -1.1152,-2.3725 -2.2767,-4.7643 -3.6152,-7.0351 -0.04428,-0.1006 -0.0945,-0.1984 -0.15039,-0.293 -0.48802,-0.8195 -1.3629,-1.3307 -2.3164,-1.3535 z"
         fill="#ffffff"
         id="path2-5" /><path
         d="m 40.699,1029.4 c -4.1777,0.9287 -8.3103,2.2217 -12.185,4.1719 0.08864,3.4213 0.3098,6.6993 0.75817,10.029 -1.5047,0.9641 -3.086,1.7915 -4.4915,2.9199 -1.428,1.0985 -2.8864,2.1496 -4.1795,3.4344 -2.5831,-1.7086 -5.3171,-3.3141 -8.1337,-4.7315 -3.036,3.2674 -5.8748,6.7939 -8.1937,10.74 1.7447,2.8222 3.566,5.4678 5.5326,7.9784 h 0.055057 v 24.22 c 0.044277,4e-4 0.088553,0 0.13242,0.01 l 14.848,1.4317 c 0.77777,0.075 1.3873,0.701 1.4415,1.4804 l 0.4579,6.5545 12.952,0.924 0.89232,-6.0493 c 0.11568,-0.7844 0.78842,-1.3657 1.5818,-1.3657 h 15.665 c 0.79295,0 1.4657,0.5813 1.5814,1.3657 l 0.89232,6.0493 12.953,-0.924 0.45752,-6.5545 c 0.05457,-0.7794 0.66369,-1.405 1.4415,-1.4804 l 14.842,-1.4317 c 0.0439,0 0.08778,-0.01 0.13204,-0.01 v -1.9326 h 0.0058 v -22.285 h 0.05506 c 1.967,-2.5105 3.7871,-5.1561 5.5326,-7.9784 -2.3181,-3.9462 -5.1585,-7.4728 -8.1945,-10.74 -2.8157,1.4174 -5.5507,3.023 -8.1339,4.7315 -1.2926,-1.2848 -2.7485,-2.3358 -4.1785,-3.4343 -1.405,-1.1286 -2.9883,-1.9559 -4.4901,-2.9199 0.44714,-3.3298 0.66819,-6.6079 0.75721,-10.029 -3.8749,-1.9501 -8.007,-3.2432 -12.187,-4.1719 -1.6688,2.8047 -3.1949,5.8418 -4.524,8.811 -1.5761,-0.2633 -3.1595,-0.3609 -4.745,-0.3798 h -0.0308 -0.03003 c -1.5884,0.019 -3.1704,0.1165 -4.7469,0.3798 -1.3283,-2.9692 -2.8535,-6.0063 -4.5248,-8.811 z m -30.862,61.966 c 0.00577,1.4349 0.024448,3.007 0.024448,3.32 0,14.101 17.888,20.878 40.112,20.956 h 0.05448 c 22.224,-0.078 40.106,-6.8554 40.106,-20.956 0,-0.3188 0.01926,-1.8844 0.02579,-3.32 l -13.346,1.2872 -0.46002,6.5895 c -0.05535,0.7941 -0.68712,1.4261 -1.4813,1.4831 l -15.816,1.1286 h -0.11529 c -0.78597,0 -1.4641,-0.5767 -1.5802,-1.366 l -0.90696,-6.151 h -12.905 l -0.90695,6.151 c -0.12183,0.8277 -0.86196,1.4229 -1.6955,1.3617 l -15.816,-1.1285 c -0.79418,-0.057 -1.4259,-0.6889 -1.4813,-1.4831 l -0.45983,-6.5896 z"
         fill="#478cbf"
         id="path3-6" /><g
         fill="#ffffff"
         stroke-width="0.32031"
         id="g6"><path
           d="m 0,0 c 0,-12.052 -9.765,-21.815 -21.813,-21.815 -12.042,0 -21.81,9.763 -21.81,21.815 0,12.044 9.768,21.802 21.81,21.802 C -9.765,21.802 0,12.044 0,0"
           transform="matrix(0.41022,0,0,-0.41022,37.9,1073.8)"
           id="path4-2" /><path
           d="m 0,0 c -3.878,0 -7.021,2.858 -7.021,6.381 v 20.081 c 0,3.52 3.143,6.381 7.021,6.381 3.878,0 7.028,-2.861 7.028,-6.381 V 6.381 C 7.028,2.858 3.878,0 0,0"
           transform="matrix(0.41022,0,0,-0.41022,50,1083.6)"
           id="path5-9" /><path
           d="m 0,0 c 0,-12.052 9.765,-21.815 21.815,-21.815 12.041,0 21.808,9.763 21.808,21.815 0,12.044 -9.767,21.802 -21.808,21.802 C 9.765,21.802 0,12.044 0,0"
           transform="matrix(0.41022,0,0,-0.41022,62.101,1073.8)"
           id="path6-1" /></g><path
         d="m 29.807,1068.4 c -3.2801,0 -5.9395,2.6601 -5.9395,5.9394 0,3.2794 2.6594,5.9371 5.9395,5.9371 3.2818,0 5.9397,-2.6577 5.9397,-5.9371 0,-3.2793 -2.6579,-5.9394 -5.9397,-5.9394 z m 40.383,0 c -3.2793,0 -5.9362,2.6601 -5.9362,5.9394 0,3.2794 2.6569,5.9371 5.9362,5.9371 3.2826,0 5.9396,-2.6577 5.9396,-5.9371 0,-3.2793 -2.6571,-5.9394 -5.9396,-5.9394 z"
         fill="#414042"
         id="path7-2" /></g><path
       d="M 9.9116863,5.1634189 C 8.8648185,5.785006 6.8022846,8.154469 6.7827225,8.7758601 v 1.0285773 c 0,1.3038156 1.218721,2.4497666 2.3252535,2.4497666 1.32866,0 2.435682,-1.101153 2.435779,-2.4080993 0,1.3069463 1.069071,2.4080993 2.397828,2.4080993 1.328856,0 2.363595,-1.101153 2.363595,-2.4080993 0,1.3069463 1.136755,2.4080993 2.465514,2.4080993 h 0.02406 c 1.328856,0 2.465611,-1.101153 2.465611,-2.4080993 0,1.3069463 1.034837,2.4080993 2.363496,2.4080993 1.328759,0 2.39783,-1.101153 2.39783,-2.4080993 0,1.3069463 1.107217,2.4080993 2.435779,2.4080993 1.106532,0 2.325254,-1.145755 2.325254,-2.4497666 V 8.7758601 c -0.01957,-0.6214886 -2.082098,-2.99105 -3.128771,-3.6124412 -3.253768,-0.114243 -5.509479,-0.134001 -8.87133,-0.133512 -3.361752,2.94e-4 -7.944964,0.052818 -8.8711333,0.133512 z m 6.3766677,6.4767291 a 2.7411442,2.7411442 0 0 1 -0.467534,0.602025 c -0.501574,0.490423 -1.189085,0.794418 -1.94702,0.794418 a 2.7858436,2.7858436 0 0 1 -1.951126,-0.79481 c -0.181733,-0.178014 -0.319841,-0.368355 -0.446311,-0.589993 l -5.88e-4,3.81e-4 c -0.126372,0.22203 -0.302431,0.412272 -0.484555,0.590483 a 2.7876043,2.7876043 0 0 1 -1.9511268,0.794223 c -0.091354,0 -0.1864277,-0.02524 -0.2633064,-0.05164 -0.106809,1.112303 -0.1519002,2.175309 -0.167843,2.950361 l -1.957e-4,0.0044 c -0.00193,0.39359 -0.00394,0.717246 -0.00588,1.166883 0.020539,2.333761 -0.2311268,7.56409 1.0289681,8.849224 1.9526918,0.455308 5.5458638,0.662667 9.1506758,0.663939 h 5.89e-4 c 3.604715,-0.0013 7.197888,-0.208631 9.150581,-0.663939 1.260094,-1.285233 1.008427,-6.51556 1.028968,-8.849322 -0.0021,-0.449539 -0.0039,-0.773195 -0.0058,-1.166883 l -2.94e-4,-0.0044 c -0.01585,-0.775247 -0.06095,-1.838156 -0.167745,-2.950459 -0.07688,0.0264 -0.171853,0.05164 -0.263307,0.05164 a 2.7876043,2.7876043 0 0 1 -1.951208,-0.794213 c -0.182122,-0.178211 -0.358182,-0.368355 -0.484651,-0.590482 l -5.9e-4,-3.82e-4 c -0.12657,0.221639 -0.264577,0.412077 -0.44631,0.589994 a 2.785648,2.785648 0 0 1 -1.95103,0.794712 c -0.757836,0 -1.445445,-0.304191 -1.947018,-0.794516 a 2.7411442,2.7411442 0 0 1 -0.467535,-0.602025 2.7377207,2.7377207 0 0 1 -0.463233,0.602025 2.7866261,2.7866261 0 0 1 -1.951322,0.794614 c -0.02642,0 -0.05281,-0.0012 -0.07923,-0.0019 h -6.91e-4 c -0.0264,8.3e-4 -0.05282,0.0019 -0.07952,0.0019 A 2.7866261,2.7866261 0 0 1 16.751845,12.24189 2.7379163,2.7379163 0 0 1 16.288614,11.639865 Z m -2.003749,2.591005 -1.95e-4,9.69e-4 h 0.0015 c 0.793538,0.0017 1.498459,0 2.371909,0.953262 0.687412,-0.07208 1.405735,-0.108081 2.124643,-0.107005 h 5.88e-4 c 0.71891,-9.69e-4 1.437231,0.03492 2.124743,0.107005 0.87345,-0.95336 1.57837,-0.951697 2.371908,-0.953262 h 0.0014 l -1.95e-4,-9.69e-4 c 0.374907,0 1.874639,0 2.919648,2.935005 l 1.122476,4.026376 c 0.831781,2.995354 -0.266339,3.068614 -1.63608,3.071256 -2.031332,-0.0756 -3.156056,-1.550789 -3.156056,-3.025774 -1.124433,0.184276 -2.436171,0.276414 -3.74791,0.276511 h -5.9e-4 c -1.311837,0 -2.623575,-0.09224 -3.747909,-0.276511 0,1.474985 -1.124822,2.950166 -3.156056,3.025774 -1.36974,-0.0027 -2.4677633,-0.07581 -1.635981,-3.071256 l 1.122768,-4.026279 c 1.045009,-2.935004 2.54474,-2.935004 2.919648,-2.935004 z m 4.497824,2.306572 v 5.89e-4 c -0.0019,0.0019 -2.138435,1.964039 -2.522537,2.661917 l 1.399084,-0.05606 v 1.220091 c 0,0.05712 0.561433,0.03384 1.123453,0.0078 h 5.88e-4 c 0.561825,0.02601 1.123358,0.04929 1.123358,-0.0078 v -1.220091 l 1.399083,0.05606 C 20.921257,18.502353 18.78292,16.538314 18.78292,16.538314 v -5.89e-4 l -2.93e-4,1.95e-4 z"
       color="#000000"
       fill="#ffffff"
       id="path1"
       style="stroke-width:0.0978106" /><path
       id="rect6"
       style="fill:#000000;fill-opacity:1;fill-rule:evenodd;stroke:#ffffff;stroke-width:1.05833;stroke-linejoin:round;stroke-dasharray:none;stroke-opacity:1"
       d="m 25.637269,22.804667 0,11.778609 3.552755,-3.804419 13.113412,13.860136 3.632336,-3.436483 -13.326319,-14.085445 4.02146,-4.306197 z" /></g></svg>
